<svg width="512" height="512" viewBox="0 0 512 512" fill="none" xmlns="http://www.w3.org/2000/svg">
<g clip-path="url(#clip0)">
<path d="M411.131 288.506C392.676 243.492 383.446 196.051 383.446 146.181C383.446 114.776 374.315 89.844 356.048 71.379C337.768 52.915 312.642 41.777 280.665 37.972C282.185 34.548 282.944 31.027 282.944 27.41C282.944 19.796 280.281 13.319 274.953 7.994C269.625 2.663 263.154 0 255.539 0C247.929 0 241.456 2.663 236.125 7.994C230.795 13.323 228.132 19.796 228.132 27.41C228.132 31.027 228.892 34.545 230.417 37.972C198.44 41.781 173.314 52.914 155.042 71.379C136.771 89.843 127.636 114.775 127.636 146.181C127.636 196.051 118.407 243.492 99.942 288.506C81.478 333.521 54.166 371.353 18 401.998C18 411.894 21.617 420.461 28.85 427.691C36.082 434.922 44.646 438.543 54.547 438.543H182.454C182.454 458.721 189.589 475.947 203.865 490.218C218.142 504.491 235.369 511.63 255.543 511.63C275.72 511.63 292.947 504.491 307.218 490.218C321.491 475.947 328.63 458.721 328.63 438.543H456.537C466.434 438.543 475.007 434.93 482.231 427.691C489.465 420.461 493.083 411.894 493.083 401.998C456.923 371.353 429.608 333.521 411.131 288.506ZM255.543 488.787C241.649 488.787 229.796 483.891 219.995 474.089C210.194 464.285 205.292 452.431 205.292 438.536C205.292 435.49 206.816 433.968 209.86 433.968C212.906 433.968 214.43 435.49 214.43 438.536C214.43 449.767 218.473 459.425 226.562 467.518C234.653 475.612 244.311 479.653 255.542 479.653C258.588 479.653 260.117 481.183 260.117 484.222C260.119 487.268 258.589 488.787 255.543 488.787Z" fill="#C4C4C4"/>
<rect x="202" y="421" width="92" height="63" fill="#C4C4C4"/>
<rect x="225" y="471" width="46" height="24" fill="#C4C4C4"/>
</g>
<defs>
<clipPath id="clip0">
<rect width="511.63" height="511.63" fill="white"/>
</clipPath>
</defs>
</svg>
