<?xml version="1.0" encoding="UTF-8"?>
<svg xmlns="http://www.w3.org/2000/svg" xmlns:xlink="http://www.w3.org/1999/xlink" viewBox="0 0 64 64" width="64px" height="64px">
<g id="surface52514455">
<path style=" stroke:none;fill-rule:nonzero;fill:rgb(100%,100%,100%);fill-opacity:1;" d="M 32 8 C 20.976562 8 12 16.976562 12 28 L 12 35.1875 L 12.0625 35.1875 C 12.023438 35.453125 12 35.726562 12 36 C 12 38.640625 13.6875 40.890625 16.0625 41.6875 C 16.90625 49.71875 23.75 56 32 56 C 40.25 56 47.09375 49.71875 47.9375 41.6875 C 50.3125 40.890625 52 38.640625 52 36 C 52 35.726562 51.976562 35.453125 51.9375 35.1875 L 52 35.1875 L 52 28 C 52 16.976562 43.023438 8 32 8 Z M 32 12 C 40.859375 12 48 19.140625 48 28 L 48 30.3125 C 47.9375 30.289062 47.875 30.273438 47.8125 30.25 C 47.023438 26.664062 43.820312 24 40 24 C 38.898438 24 38 23.101562 38 22 L 38 20 L 34 20 L 34 22 C 34 23.101562 33.101562 24 32 24 L 24 24 C 20.179688 24 16.976562 26.664062 16.1875 30.25 C 16.125 30.273438 16.0625 30.289062 16 30.3125 L 16 28 C 16 19.140625 23.140625 12 32 12 Z M 36 26.4375 C 37.0625 27.390625 38.460938 28 40 28 C 42.203125 28 44 29.796875 44 32 L 44 34 L 46 34 C 47.101562 34 48 34.898438 48 36 C 48 37.101562 47.101562 38 46 38 L 44 38 L 44 40 C 44 46.617188 38.617188 52 32 52 C 25.382812 52 20 46.617188 20 40 L 20 38 L 18 38 C 16.898438 38 16 37.101562 16 36 C 16 34.898438 16.898438 34 18 34 L 20 34 L 20 32 C 20 29.796875 21.796875 28 24 28 L 32 28 C 33.539062 28 34.9375 27.390625 36 26.4375 Z M 26 34 C 24.898438 34 24 34.898438 24 36 C 24 37.101562 24.898438 38 26 38 C 27.101562 38 28 37.101562 28 36 C 28 34.898438 27.101562 34 26 34 Z M 38 34 C 36.898438 34 36 34.898438 36 36 C 36 37.101562 36.898438 38 38 38 C 39.101562 38 40 37.101562 40 36 C 40 34.898438 39.101562 34 38 34 Z M 38 34 "/>
</g>
</svg>
