<svg width="40" height="40" viewBox="0 0 40 40" fill="none" xmlns="http://www.w3.org/2000/svg">
<path d="M14.9883 0L14.0039 5.04688C12.3633 5.66797 10.8438 6.53516 9.51172 7.62891L4.66406 5.95703L0 14.043L3.87891 17.4141C3.74219 18.2578 3.65234 19.1172 3.65234 20C3.65234 20.8828 3.74219 21.7422 3.87891 22.5859L0 25.957L4.66406 34.043L9.51172 32.3711C10.8438 33.4648 12.3633 34.332 14.0039 34.9531L14.9883 40H24.3164L25.3008 34.9531C26.9414 34.332 28.4609 33.4648 29.793 32.3711L34.6406 34.043L39.3047 25.957L35.4258 22.5859C35.5625 21.7422 35.6523 20.8828 35.6523 20C35.6523 19.1172 35.5625 18.2578 35.4258 17.4141L39.3047 14.043L34.6406 5.95703L29.793 7.62891C28.4609 6.53516 26.9414 5.66797 25.3008 5.04688L24.3164 0H14.9883ZM19.6523 12C24.0703 12 27.6523 15.582 27.6523 20C27.6523 24.418 24.0703 28 19.6523 28C15.2344 28 11.6523 24.418 11.6523 20C11.6523 15.582 15.2344 12 19.6523 12Z" fill="#C4C4C4"/>
</svg>
